# xmcd
#
# Track frame offsets:
#	150
#	13870
#	33103
#	43625
#	52388
#	65538
#	79220
#	95658
#
# Disc length: 1417 seconds
#
# Revision: 5
# Processed by: cddbd v1.5.2PL0 Copyright (c) Steve Scherf et al.
# Submitted via: audiograbber 1.83.01
#
DISCID=6a058708
DTITLE=Elvis Presley - Elvis Country
DYEAR=1988
DGENRE=Rock and Roll
TTITLE0=Whole Lot-Ta Shakin' Goin' On
TTITLE1=Funny How Time Slips Away
TTITLE2=Baby Let's Play House*
TTITLE3=Rip It Up *
TTITLE4=Lovin' Arms**
TTITLE5=You Asked Me To**
TTITLE6=She Thinks I Still Care**
TTITLE7=Paralyzed*
EXTD=RCA/BMG Music. CD 6330-2-R. Made in U.S.A. * Reissue produced by Tony Brow
EXTD=n and Davis Briggs ** Produced by Felton Jarvis. Re-mastered by Hank William
EXTD=s and Ken Love, Mastermix, Nashville.
EXTT0=
EXTT1=
EXTT2=
EXTT3=
EXTT4=
EXTT5=
EXTT6=
EXTT7=
PLAYORDER=
